<svg width="64" height="64" viewBox="0 0 64 64" fill="none" xmlns="http://www.w3.org/2000/svg">
<g clip-path="url(#clip0_45726_458)">
<path d="M9.53558 54.4643C5.47335 50.4021 3.60098 46.7994 3.52323 46.6481L2.89648 45.4274L27.5783 15.4582L36.9181 14.3978L43.0977 10.6451L53.3544 20.9019L49.6018 27.0815L48.5413 36.4213L18.5727 61.1031L17.3519 60.4764C17.2006 60.3987 13.5978 58.5265 9.53558 54.4643Z" fill="#706F78"/>
<path d="M9.53558 54.4643C15.0781 48.9218 48.2262 15.7737 48.2262 15.7737L53.3547 20.9022L49.6021 27.0818L48.5416 36.4216L18.5727 61.1031L17.3519 60.4765C17.2006 60.3986 13.5978 58.5264 9.53558 54.4643Z" fill="#504F57"/>
<path d="M48.5142 36.444L48.5416 36.4215L49.6021 27.0817L53.3547 20.9021L43.098 10.6453L36.9184 14.3979L27.5785 15.4584L27.556 15.4857C28.8749 17.6714 31.89 22.2032 36.8436 27.1566C41.7972 32.1099 46.3287 35.1253 48.5142 36.444Z" fill="#7E7D86"/>
<path d="M48.5142 36.444L48.5416 36.4215L49.6021 27.0816L53.3547 20.902L48.2262 15.7736C48.2262 15.7736 39.6613 24.3384 36.8431 27.1566C41.7968 32.11 46.3287 35.1252 48.5142 36.444Z" fill="#706F78"/>
<path d="M49.5965 27.132L49.6023 27.0817L53.3549 20.9021L43.0981 10.6453L36.9185 14.3979L36.8682 14.4036C37.8342 15.9349 39.6918 18.5791 42.5566 21.4438C45.4213 24.3086 48.0652 26.166 49.5965 27.132Z" fill="#706F78"/>
<path d="M49.5966 27.1319L49.6023 27.0816L53.3549 20.902L48.2264 15.7736C48.2264 15.7736 44.4452 19.5548 42.5563 21.4437C45.4211 24.3082 48.0652 26.1659 49.5966 27.1319Z" fill="#504F57"/>
<path d="M0.0841209 26.8463C-0.510752 19.4344 2.07024 12.2612 7.16572 7.16584C12.2612 2.07048 19.4343 -0.510633 26.846 0.0842399L26.5121 4.24485C20.3218 3.74798 14.3459 5.88847 10.117 10.1173C5.88797 14.3462 3.74761 20.322 4.24448 26.5125L0.0841209 26.8463Z" fill="#641D3B"/>
<path d="M8.0491 26.5428C7.63823 21.4249 9.4231 16.4693 12.9461 12.9463C16.4691 9.42334 21.4248 7.6386 26.5425 8.04935L26.2087 12.2098C22.3123 11.8971 18.5539 13.2412 15.8976 15.8977C13.2412 18.5542 11.8968 22.3124 12.2096 26.2089L8.0491 26.5428Z" fill="#AE1955"/>
<path d="M37.1536 63.9156L37.4875 59.755C43.6778 60.2519 49.6537 58.1114 53.8827 53.8825C58.1116 49.6536 60.252 43.6778 59.7551 37.4873L63.9157 37.1534C64.5106 44.5652 61.9296 51.7385 56.8341 56.8337C51.7387 61.929 44.5653 64.5106 37.1536 63.9156Z" fill="#641D3B"/>
<path d="M37.4568 55.9508L37.7911 51.7902C41.6873 52.1031 45.4457 50.759 48.1021 48.1025C50.7584 45.446 52.1027 41.6878 51.79 37.7914L55.9505 37.4575C56.3614 42.5754 54.5765 47.531 51.0535 51.054C47.5306 54.5768 42.5748 56.3618 37.4568 55.9508Z" fill="#AE1955"/>
</g>
<defs>
<clipPath id="clip0_45726_458">
<rect width="64" height="64" fill="white"/>
</clipPath>
</defs>
</svg>
